Coordinates
version=1
nRows=9
nColumns=36
inDegrees=yes

Units are S.I. units (second, meters, Newtons, ...)
If the header above contains a line with 'inDegrees', this indicates whether rotational values are in degrees (yes) or radians (no).

endheader
time	pelvis_tilt	pelvis_list	pelvis_rotation	pelvis_tx	pelvis_ty	pelvis_tz	hip_flexion_r	hip_adduction_r	hip_rotation_r	knee_angle_r	knee_angle_r_beta	ankle_angle_r	subtalar_angle_r	mtp_angle_r	hip_flexion_l	hip_adduction_l	hip_rotation_l	knee_angle_l	knee_angle_l_beta	ankle_angle_l	subtalar_angle_l	mtp_angle_l	lumbar_extension	lumbar_bending	lumbar_rotation	arm_flex_r	arm_add_r	arm_rot_r	elbow_flex_r	pro_sup_r	arm_flex_l	arm_add_l	arm_rot_l	elbow_flex_l	pro_sup_l
      0.00000000	     -0.18792649	      0.96469640	      3.68553007	      1.10409367	      0.94277792	      0.21741984	      0.70409344	      3.02624632	      4.80988366	      4.15920580	      0.07259184	      8.80224944	      3.66994764	     -6.43166978	     35.89978739	     -5.59287627	     -0.94070386	     16.02113853	      0.27962162	     -1.49895791	    -13.10381124	     -6.43166978	     -6.32849680	      2.63350194	     -6.48069034	     30.32538075	     -4.29455525	     50.14736379	    130.69518387	     82.54323315	     28.92264335	      2.58144851	     70.82337657	    117.57153115	    100.41191040
      0.01666670	      0.60901401	     -0.31587323	      1.61086734	      1.10172246	      0.93930061	      0.21924762	     -0.12781872	      5.10294603	      8.53248609	      2.99916011	      0.05234522	      3.97996671	     -2.54868982	     -6.70709572	     35.19373629	     -8.47594891	     -0.73677949	     11.80992526	      0.20612208	      2.94840543	     -8.59672487	     -6.70709572	     -8.15910696	      5.40921636	     -3.05502602	     33.57521324	     -5.97234657	     57.41311808	    134.88459888	     97.80244400	     30.20725364	      1.36939650	     69.09700437	    120.94870754	    107.68399941
      0.03333330	      0.25592036	      1.52259153	     -0.50118648	      1.10576461	      0.93741192	      0.22188157	      0.75985400	      3.33572712	      6.54423630	      3.67968008	      0.06422253	      3.56340671	     -1.72252074	     -6.70796929	     35.08690672	     -8.43831432	     -4.43447595	      9.04767362	      0.15791169	      3.97556288	     -5.24507112	     -6.70796929	     -7.69755063	      3.42226891	     -1.25085733	     33.69294070	     -2.88512752	     56.41072572	    134.22883579	     97.67197048	     30.98101055	      0.63536402	     69.51897938	    122.69796375	    108.02011158
      0.05000000	     -1.24647016	      3.54298608	     -1.02119551	      1.10262595	      0.93639639	      0.22661821	      3.44507029	      1.40025410	      3.86856034	      5.14040239	      0.08971695	      5.58010336	      0.94357216	     -6.89019229	     37.83265064	     -7.79830754	     -7.24568342	     10.63014168	      0.18553097	      4.52033499	     -3.84367545	     -6.89019229	     -5.57227870	      1.10527354	     -0.50648741	     32.39128317	     -0.91892860	     56.76606135	    132.85397168	    103.94801043	     31.07323734	      0.52858638	     69.04985290	    122.72379826	    111.41186144
      0.06666670	     -2.02056628	      5.24305650	     -1.54182533	      1.10958257	      0.94195591	      0.22561391	      5.20715620	     -0.29557942	      2.23610368	      6.89940607	      0.12041735	      6.98563505	      2.34229991	     -6.90833641	     39.39106141	     -6.87075832	     -9.93517937	     12.29913500	      0.21466040	      4.79577506	     -2.52782458	     -6.90833641	     -4.36604433	     -0.72747725	      0.01441597	     30.74025566	      0.09140500	     58.10806161	    131.92505427	    103.74954857	     30.19231007	      0.00706541	     69.18961254	    121.80524422	    110.56976158
      0.08333330	     -2.44667902	      5.80292941	     -1.48956932	      1.10617861	      0.94259979	      0.22777153	      6.62392573	     -0.92750574	      1.04470733	      8.97929992	      0.15671835	      8.47410139	      4.12771246	     -6.92750557	     41.58863376	     -6.87513239	    -11.73481474	     14.87328107	      0.25958773	      5.25864710	     -0.25951708	     -6.92750557	     -3.86412005	     -1.24518353	     -0.06162490	     29.62772033	      0.40643244	     59.74974972	    131.35127641	    103.78408466	     29.93021623	     -0.13339482	     69.08827933	    121.19065846	    109.94986605
      0.10000000	     -2.21092852	      5.93847743	     -1.28708068	      1.10652916	      0.94233841	      0.22775000	      6.99677350	     -1.03865655	      0.51506993	     10.50924434	      0.18342092	      9.85571002	      5.17945205	     -7.05101472	     42.72801491	     -6.90572427	    -12.70766044	     16.73106754	      0.29201222	      4.80185930	      1.12100611	     -7.05101472	     -4.07673374	     -1.17875191	     -0.90044696	     29.99624797	      0.78841743	     61.10715477	    130.66204092	    104.76392884	     30.10032159	     -0.27009527	     68.36694778	    121.22076197	    110.34722473
      0.11666670	     -1.82598737	      5.81408303	     -1.18850936	      1.10789060	      0.94051011	      0.22795387	      6.95533186	     -0.84691287	      0.51836896	     11.65829944	      0.20347571	     11.09779706	      5.74557626	     -7.10808158	     43.40142293	     -7.20278410	    -13.10892693	     18.06817136	      0.31534908	      3.92849515	      1.85941201	     -7.10808158	     -4.25093153	     -0.88821985	     -1.32250860	     30.60682520	      0.99128478	     61.21946527	    130.33848549	    104.17462920	     31.11595858	      0.20427880	     67.69940579	    121.94151384	    109.27875073
      0.13333330	     -1.42742282	      5.61015515	     -1.09620339	      1.10782075	      0.94728271	      0.22790407	      6.66937135	     -0.54437413	      0.76486725	     12.40593186	      0.21652436	     11.80209351	      5.74588538	     -7.10175289	     43.71543130	     -7.44359905	    -13.21313667	     18.67808723	      0.32599412	      3.16665925	      2.41833739	     -7.10175289	     -4.91080486	     -0.40692813	     -1.32248647	     30.92420024	      0.05953558	     61.73065784	    130.31436518	    103.47867423	     31.19967990	      0.10333496	     67.78668461	    122.04633201	    109.07289692
